<svg xmlns="http://www.w3.org/2000/svg" xmlns:xlink="http://www.w3.org/1999/xlink" xml:space="preserve" viewBox="0 0 144.903 159.805">
  <defs>
    <linearGradient id="a">
      <stop offset="0" stop-color="#76fd68"/>
      <stop offset=".337" stop-color="#00a4d5"/>
      <stop offset=".819" stop-color="#bf2391"/>
    </linearGradient>
    <linearGradient xlink:href="#a" id="b" x1="37.365" x2="145.049" y1="94.368" y2="191.327" gradientUnits="userSpaceOnUse"/>
  </defs>
  <path fill="url(#b)" d="M58.755 62.945h64.903c22.16 0 40 17.84 40 40v60.793c0 22.16-17.84 40-40 40h-14.724L91.207 222.75l-17.728-19.012H58.755c-22.16 0-40-17.84-40-40v-60.793c0-22.16 17.84-40 40-40z" transform="translate(-18.755 -62.945)"/>
  <path fill="#fff" d="M34.023 97.972c6.056-2.897 12.661-4.828 19.634-6.18-1.285-6.178-2.018-12.55-2.202-19.115H21.546c.55 10.04 3.67 19.116 8.808 26.84zm2.386 6.178-2.202.966c8.073 9.654 19.45 16.026 32.11 17.57l-.55-.772c-4.587-6.565-8.257-14.674-10.642-23.556-6.79 1.158-13.028 3.089-18.716 5.792zm18.532-63.138c2.202-8.303 5.505-16.026 9.725-22.398l1.652-2.317c-12.845 1.545-24.038 8.11-32.295 17.764l2.019.965c5.871 2.703 12.294 4.827 18.9 5.986zm-1.468 6.371c-7.156-1.351-13.761-3.475-20-6.371l-3.303-1.545c-4.954 7.723-8.074 16.991-8.624 26.839h29.909c.184-6.565.734-12.937 2.018-18.923zm56.149 58.312-1.285-.966c-6.238-3.089-13.211-5.213-20.55-6.564-2.386 8.881-6.056 16.991-10.643 23.556l-.734 1.158c13.211-1.158 24.771-7.53 33.212-17.184zm-1.102-71.248 1.469-.773c-8.44-9.847-20.184-16.219-33.396-17.377l1.652 2.51c4.22 6.372 7.34 14.095 9.725 22.398 7.34-1.352 14.312-3.669 20.55-6.758zM57.51 66.113h27.707A109.192 109.192 0 0 0 83.2 48.349c-3.853.386-7.707.772-11.56.772-4.037 0-8.074-.193-11.927-.772-1.284 5.6-2.018 11.778-2.202 17.764zm56.332-27.418-2.569 1.544c-6.606 3.283-14.129 5.793-21.835 7.144 1.284 5.986 1.835 12.358 2.018 18.73h31.56a54.57 54.57 0 0 0-9.174-27.418zm-2.385 60.435 2.201 1.545c5.505-7.917 8.808-17.571 9.359-27.804h-31.56c-.184 6.564-.918 12.936-2.203 19.115a79.125 79.125 0 0 1 21.836 7.144zM71.456 19.965l-1.835 2.51c-3.67 5.407-6.423 12.165-8.441 19.502a94.93 94.93 0 0 0 10.459.58c3.486 0 6.79-.194 10.092-.58-2.018-7.337-4.954-14.095-8.624-19.694Zm0 99.053.734-.966c4.036-5.792 7.156-12.936 9.358-20.66a85.253 85.253 0 0 0-9.909-.579c-3.486 0-6.973.193-10.275.58 2.201 7.723 5.32 14.867 9.358 20.466zm.183-28.77c3.853 0 7.707.193 11.56.772 1.284-5.792 1.835-11.97 2.018-18.15H57.51c.184 6.372.918 12.358 2.019 18.15 4.036-.579 8.073-.772 12.11-.772z"/>
</svg>